# xmcd
#
# Track frame offsets: 
#        150
#        22782
#        38456
#        65761
#        85565
#        125368
#        146625
#        169475
#        195620
#        214324
#        230676
#
# Disc length: 3486 seconds
#
# Revision: 0
# Processed by: cddbd v1.5.2PL0 Copyright (c) Steve Scherf et al.
# Submitted via: ExactAudioCopy v1.0b1
#
DISCID=950d9c0b
DTITLE=Cabinet - Cabinet
DYEAR=2008
DGENRE=Bluegrass
TTITLE0=Elizabeth
TTITLE1=Shifty Shaft
TTITLE2=Caroline
TTITLE3=Tower
TTITLE4=Dirt
TTITLE5=The Dove
TTITLE6=Coalminers
TTITLE7=The One
TTITLE8=Treesap
TTITLE9=Old Farmer's Mill
TTITLE10=Carry On
EXTD=
EXTT0=
EXTT1=
EXTT2=
EXTT3=
EXTT4=
EXTT5=
EXTT6=
EXTT7=
EXTT8=
EXTT9=
EXTT10=
PLAYORDER=
